<?xml version="1.0" encoding="UTF-8"?>
<svg width="7px" height="5px" viewBox="0 0 7 5" version="1.1" xmlns="http://www.w3.org/2000/svg" xmlns:xlink="http://www.w3.org/1999/xlink">
    <title>"</title>
    <g id="Page-1" stroke="none" stroke-width="1" fill="none" fill-rule="evenodd">
        <path d="M4.886,4.49 C5.726,3.832 6.328,2.712 6.328,1.718 L6.328,1.452 C6.328,0.906 5.992,0.5 5.236,0.5 C4.466,0.5 4.13,0.906 4.13,1.452 L4.13,1.76 C4.13,2.222 4.368,2.6 4.9,2.698 C4.704,3.384 4.284,3.93 3.682,4.49 L4.886,4.49 Z M1.736,4.49 C2.576,3.832 3.178,2.712 3.178,1.718 L3.178,1.452 C3.178,0.906 2.842,0.5 2.086,0.5 C1.316,0.5 0.98,0.906 0.98,1.452 L0.98,1.76 C0.98,2.222 1.218,2.6 1.75,2.698 C1.554,3.384 1.134,3.93 0.532,4.49 L1.736,4.49 Z" id="" fill="#000000" fill-rule="nonzero"></path>
    </g>
</svg>