<svg width="7px" height="5px" viewBox="0 0 7 5" version="1.1" xmlns="http://www.w3.org/2000/svg" xmlns:xlink="http://www.w3.org/1999/xlink">
    <title>"</title>
    <g id="Page-1" stroke="none" stroke-width="1" fill="none" fill-rule="evenodd">
        <path d="M5.152,4.63 C5.922,4.63 6.258,4.224 6.258,3.678 L6.258,3.37 C6.258,2.922 6.02,2.544 5.488,2.432 C5.684,1.746 6.104,1.214 6.706,0.64 L5.502,0.64 C4.676,1.312 4.06,2.418 4.06,3.412 L4.06,3.678 C4.06,4.224 4.396,4.63 5.152,4.63 Z M2.002,4.63 C2.772,4.63 3.108,4.224 3.108,3.678 L3.108,3.37 C3.108,2.922 2.87,2.544 2.338,2.432 C2.534,1.746 2.954,1.214 3.556,0.64 L2.352,0.64 C1.526,1.312 0.91,2.418 0.91,3.412 L0.91,3.678 C0.91,4.224 1.246,4.63 2.002,4.63 Z" id="" fill="#000000" fill-rule="nonzero"></path>
    </g>
</svg>